<svg width="24" height="15" viewBox="0 0 24 15" fill="none" xmlns="http://www.w3.org/2000/svg">
<path d="M14.859 7.74219C14.859 9.13504 14.5677 10.3772 13.9851 11.4688C13.4025 12.5536 12.5721 13.4007 11.494 14.01C10.4159 14.6261 9.18039 14.9342 7.78753 14.9342C6.78976 14.9342 5.83552 14.74 4.9248 14.3516C4.01409 13.9632 3.23061 13.4408 2.57436 12.7846C1.91811 12.1283 1.39579 11.3449 1.00739 10.4342C0.619001 9.52344 0.424805 8.5692 0.424805 7.57143C0.424805 6.57366 0.619001 5.61942 1.00739 4.70871C1.39579 3.79799 1.91811 3.01451 2.57436 2.35826C3.23061 1.70201 4.01409 1.17969 4.9248 0.791298C5.83552 0.402906 6.78976 0.20871 7.78753 0.20871C9.70271 0.20871 11.3467 0.851566 12.7194 2.13728L10.7206 4.0558C9.93708 3.29911 8.9594 2.92076 7.78753 2.92076C6.96387 2.92076 6.20047 3.12835 5.49735 3.54353C4.80092 3.95871 4.24847 4.52455 3.83998 5.24107C3.4315 5.95089 3.22726 6.72768 3.22726 7.57143C3.22726 8.41518 3.4315 9.19531 3.83998 9.91183C4.24847 10.6217 4.80092 11.1842 5.49735 11.5993C6.20047 12.0145 6.96387 12.2221 7.78753 12.2221C8.34333 12.2221 8.85226 12.1451 9.31431 11.9911C9.78306 11.8371 10.1681 11.6462 10.4694 11.4185C10.7708 11.1842 11.0319 10.9196 11.2529 10.625C11.4806 10.3304 11.6447 10.0525 11.7451 9.79129C11.8523 9.53013 11.9259 9.28237 11.9661 9.04799H7.78753V6.51674H14.7384C14.8188 6.93862 14.859 7.3471 14.859 7.74219ZM23.5677 6.51674V8.62612H21.4683V10.7254H19.359V8.62612H17.2596V6.51674H19.359V4.41741H21.4683V6.51674H23.5677Z" fill="#999999"/>
</svg>
