<svg width="16" height="15" viewBox="0 0 16 15" fill="none" xmlns="http://www.w3.org/2000/svg">
<path d="M3.78878 4.84934V14.8036H0.474051V4.84934H3.78878ZM3.99972 1.77568C4.00642 2.26452 3.83566 2.673 3.48744 3.00113C3.14593 3.32925 2.69392 3.49331 2.13142 3.49331H2.11133C1.56222 3.49331 1.12026 3.32925 0.785435 3.00113C0.450614 2.673 0.283203 2.26452 0.283203 1.77568C0.283203 1.28014 0.453962 0.871661 0.79548 0.550232C1.14369 0.222107 1.5957 0.0580444 2.15151 0.0580444C2.70731 0.0580444 3.15262 0.222107 3.48744 0.550232C3.82227 0.871661 3.99302 1.28014 3.99972 1.77568ZM15.7118 9.09822V14.8036H12.4071V9.47992C12.4071 8.7768 12.2698 8.22769 11.9953 7.8326C11.7274 7.43081 11.3055 7.22992 10.7296 7.22992C10.3078 7.22992 9.95285 7.34711 9.6649 7.58148C9.38365 7.80916 9.17271 8.09376 9.03209 8.43528C8.95843 8.63617 8.9216 8.90738 8.9216 9.24889V14.8036H5.61691C5.6303 12.1317 5.637 9.96541 5.637 8.3047C5.637 6.64398 5.63365 5.65291 5.62695 5.33148L5.61691 4.84934H8.9216V6.29577H8.90151C9.03544 6.08148 9.17271 5.89398 9.31334 5.73327C9.45396 5.57255 9.64146 5.39845 9.87584 5.21095C10.1169 5.02345 10.4082 4.87947 10.7497 4.77903C11.0979 4.67188 11.483 4.61831 11.9049 4.61831C13.0499 4.61831 13.9707 5.00001 14.6671 5.7634C15.3636 6.5201 15.7118 7.63171 15.7118 9.09822Z" fill="#999999"/>
</svg>
