<svg width="17" height="13" viewBox="0 0 17 13" fill="none" xmlns="http://www.w3.org/2000/svg">
<g clip-path="url(#clip0)">
<path d="M16.4139 1.66964C15.9653 2.32589 15.4229 2.88504 14.7867 3.3471C14.7934 3.44085 14.7967 3.58147 14.7967 3.76897C14.7967 4.63951 14.6695 5.51004 14.415 6.38058C14.1606 7.24442 13.7722 8.07478 13.2499 8.87165C12.7342 9.66853 12.1182 10.375 11.4016 10.9911C10.6851 11.6004 9.82128 12.0893 8.81012 12.4576C7.79896 12.8192 6.71748 13 5.5657 13C3.75097 13 2.09025 12.5145 0.583557 11.5435C0.817932 11.5703 1.07909 11.5837 1.36704 11.5837C2.87373 11.5837 4.21637 11.1217 5.39494 10.1975C4.69181 10.1842 4.06235 9.96987 3.50655 9.55469C2.95074 9.13281 2.56905 8.5971 2.36146 7.94754C2.58244 7.98103 2.78668 7.99777 2.97418 7.99777C3.26213 7.99777 3.54673 7.96094 3.82798 7.88728C3.07798 7.73326 2.45521 7.36161 1.95967 6.77232C1.47083 6.17634 1.22641 5.48661 1.22641 4.70312V4.66295C1.68177 4.91741 2.17061 5.05469 2.69293 5.07478C2.25097 4.78013 1.8994 4.39509 1.63824 3.91964C1.37708 3.4442 1.2465 2.92857 1.2465 2.37277C1.2465 1.78348 1.39382 1.23772 1.68847 0.735487C2.49873 1.73326 3.48311 2.53348 4.64159 3.13616C5.80677 3.73214 7.05231 4.06362 8.3782 4.13058C8.32463 3.87612 8.29784 3.62835 8.29784 3.38728C8.29784 2.48995 8.61257 1.72656 9.24204 1.0971C9.8782 0.460934 10.6449 0.142853 11.5423 0.142853C12.4798 0.142853 13.2699 0.484371 13.9128 1.16741C14.6427 1.02679 15.3291 0.765621 15.972 0.383924C15.7242 1.15402 15.2487 1.75 14.5456 2.17188C15.1684 2.10491 15.7912 1.9375 16.4139 1.66964Z" fill="#999999"/>
</g>
<defs>
<clipPath id="clip0">
<rect width="17" height="13" fill="white"/>
</clipPath>
</defs>
</svg>
