<svg width="18" height="13" viewBox="0 0 18 13" fill="none" xmlns="http://www.w3.org/2000/svg">
<g clip-path="url(#clip0)">
<path d="M7.14175 8.90179L12.0033 6.39062L7.14175 3.84933V8.90179ZM9.00001 0.243301C10.125 0.243301 11.2098 0.260043 12.2545 0.293525C13.3058 0.320311 14.0759 0.350445 14.5647 0.383926L15.298 0.424105C15.3047 0.424105 15.3616 0.430802 15.4688 0.444195C15.5759 0.45089 15.6529 0.460936 15.6998 0.474329C15.7467 0.481025 15.8237 0.494417 15.9308 0.514507C16.0446 0.534596 16.1417 0.561382 16.2221 0.594864C16.3025 0.628346 16.3962 0.671873 16.5033 0.725445C16.6105 0.779016 16.7143 0.84598 16.8147 0.926338C16.9152 0.999998 17.0123 1.08705 17.106 1.1875C17.1462 1.22768 17.1964 1.2913 17.2567 1.37835C17.3237 1.45871 17.4208 1.6529 17.548 1.96094C17.6819 2.26897 17.7723 2.60714 17.8192 2.97545C17.8728 3.40402 17.9129 3.86272 17.9397 4.35156C17.9732 4.83371 17.9933 5.21205 18 5.48661V5.88839V7.25446C18.0067 8.22545 17.9464 9.19643 17.8192 10.1674C17.7723 10.5357 17.6886 10.8705 17.5681 11.1719C17.4475 11.4665 17.3404 11.6708 17.2467 11.7846L17.106 11.9554C17.0123 12.0558 16.9152 12.1462 16.8147 12.2266C16.7143 12.3002 16.6105 12.3638 16.5033 12.4174C16.3962 12.4643 16.3025 12.5045 16.2221 12.5379C16.1417 12.5714 16.0446 12.5982 15.9308 12.6183C15.8237 12.6384 15.7433 12.6551 15.6897 12.6685C15.6429 12.6752 15.5658 12.6853 15.4587 12.6987C15.3583 12.7054 15.3047 12.7087 15.298 12.7087C13.6172 12.8359 11.5179 12.8996 9.00001 12.8996C7.61385 12.8862 6.40849 12.8661 5.38394 12.8393C4.36608 12.8058 3.69644 12.779 3.37501 12.7589L2.88282 12.7188L2.52122 12.6786C2.28014 12.6451 2.09599 12.6116 1.96876 12.5781C1.84822 12.5446 1.67747 12.4743 1.45648 12.3672C1.2422 12.26 1.0547 12.1228 0.893987 11.9554C0.853809 11.9152 0.800237 11.8549 0.733273 11.7746C0.673005 11.6875 0.575907 11.49 0.441978 11.1819C0.314746 10.8739 0.227693 10.5357 0.180818 10.1674C0.127246 9.73884 0.0837194 9.28348 0.0502372 8.80134C0.0234515 8.3125 0.00671038 7.9308 1.39512e-05 7.65625V7.25446V5.88839C-0.00668248 4.91741 0.0535854 3.94643 0.180818 2.97545C0.227693 2.60714 0.311398 2.27567 0.431934 1.98103C0.552469 1.67969 0.659612 1.4721 0.753362 1.35826L0.893987 1.1875C0.987737 1.08705 1.08483 0.999998 1.18528 0.926338C1.28572 0.84598 1.38952 0.779016 1.49666 0.725445C1.6038 0.671873 1.69755 0.628346 1.77791 0.594864C1.85827 0.561382 1.95202 0.534596 2.05916 0.514507C2.173 0.494417 2.25336 0.481025 2.30023 0.474329C2.34711 0.460936 2.42412 0.45089 2.53126 0.444195C2.6384 0.430802 2.69532 0.424105 2.70202 0.424105C4.38282 0.30357 6.48215 0.243301 9.00001 0.243301Z" fill="#999999"/>
</g>
<defs>
<clipPath id="clip0">
<rect width="18" height="13" fill="white"/>
</clipPath>
</defs>
</svg>
